<svg height="512pt" viewBox="0 0 512 512" width="512pt" xmlns="http://www.w3.org/2000/svg"><path d="m512 256c0 74.011719-31.398438 140.675781-81.617188 187.414062-15.476562 14.40625-32.726562 26.914063-51.410156 37.164063-20.9375 11.496094-43.664062 20.148437-67.65625 25.425781-10.59375 2.339844-21.441406 4.011719-32.484375 4.992188-7.523437.667968-15.140625 1.003906-22.832031 1.003906-7.699219 0-15.316406-.34375-22.851562-1.011719-11.035157-.972656-21.871094-2.644531-32.453126-4.984375-10.835937-2.382812-21.402343-5.457031-31.671874-9.164062-12.476563-4.503906-24.503907-9.960938-35.996094-16.269532-18.683594-10.242187-35.945313-22.757812-51.421875-37.167968-50.207031-46.738282-81.605469-113.402344-81.605469-187.402344 0-141.386719 114.613281-256 256-256s256 114.613281 256 256zm0 0" fill="#73b287"/><path d="m430.382812 443.414062c-45.714843 42.558594-106.996093 68.585938-174.382812 68.585938s-128.679688-26.027344-174.394531-68.597656l41.628906-57.699219c7.292969-10.105469 18.996094-16.089844 31.441406-16.089844h202.617188c12.453125 0 24.148437 5.984375 31.441406 16.089844zm0 0" fill="#36435e"/><path d="m255.984375 411.691406-62.679687 42.839844-14.628907-90.90625 41.789063-5.230469zm0 0" fill="#55627a"/><path d="m255.984375 411.691406 62.679687 42.839844 14.628907-90.90625-41.789063-5.230469zm0 0" fill="#55627a"/><g fill="#efa492"><path d="m255.984375 411.691406c-24.523437 0-44.40625-19.882812-44.40625-44.40625v-39.1875h88.816406v39.1875c0 24.523438-19.882812 44.40625-44.410156 44.40625zm0 0"/><path d="m183.984375 227.820312c0 20.113282-16.304687 36.417969-36.414063 36.417969-20.113281 0-36.417968-16.304687-36.417968-36.417969 0-20.109374 16.304687-36.414062 36.417968-36.414062 20.109376 0 36.414063 16.304688 36.414063 36.414062zm0 0"/><path d="m400.207031 227.820312c0 20.113282-16.304687 36.417969-36.414062 36.417969-20.113281 0-36.417969-16.304687-36.417969-36.417969 0-20.109374 16.304688-36.414062 36.417969-36.414062 20.109375 0 36.414062 16.304688 36.414062 36.414062zm0 0"/></g><path d="m364.398438 131.449219v120.015625c0 59.882812-48.535157 108.417968-108.410157 108.417968-59.882812 0-108.417969-48.535156-108.417969-108.417968v-120.015625zm0 0" fill="#ffbda9"/><path d="m271.496094 358.777344c-5.066406.730468-10.234375 1.101562-15.507813 1.101562-59.878906 0-108.421875-48.527344-108.421875-108.410156v-120.015625h31.023438v120.015625c0 54.613281 40.378906 99.789062 92.90625 107.308594zm0 0" fill="#efa492"/><path d="m370.8125 114.949219v59.832031l-86.285156-40.1875-17.460938-8.140625-87.25 33.488281-38.660156 14.839844v-59.832031c0-63.425781 51.40625-114.835938 114.832031-114.835938 6.59375 0 13.050781.554688 19.332031 1.632813 54.210938 9.183594 95.492188 56.371094 95.492188 113.203125zm0 0" fill="#e85142"/><path d="m370.8125 114.949219v41.828125l-65.085938-30.324219-21.199218 8.140625-17.460938-8.140625-87.25 33.488281v-44.992187c0-56.84375 41.285156-104.03125 95.503906-113.203125 54.210938 9.183594 95.492188 56.371094 95.492188 113.203125zm0 0" fill="#f76c59"/><path d="m299.53125 273.785156c0 .398438 0 .792969-.023438 1.191406-.113281 4.703126-1 9.214844-2.507812 13.417969-.226562.65625-.480469 1.304688-.738281 1.941407-1.601563 3.910156-3.761719 7.535156-6.375 10.761718-1.339844 1.683594-2.800781 3.25-4.378907 4.683594-7.761718 7.1875-18.128906 11.554688-29.519531 11.554688-11.398437 0-21.765625-4.367188-29.527343-11.554688-1.566407-1.433594-3.039063-3-4.378907-4.683594-2.613281-3.226562-4.773437-6.851562-6.375-10.761718-.257812-.636719-.511719-1.285157-.738281-1.941407-1.507812-4.203125-2.394531-8.714843-2.507812-13.417969-.023438-.398437-.023438-.792968-.023438-1.191406zm0 0" fill="#fff"/><path d="m255.992188 159.097656-20.425782 95.667969h20.425782zm0 0" fill="#efa492"/><path d="m229.160156 209.476562c0-11.191406-9.074218-20.265624-20.265625-20.265624-11.195312 0-20.265625 9.074218-20.265625 20.265624zm0 0" fill="#efa492"/><path d="m323.34375 209.476562c0-11.191406-9.074219-20.265624-20.269531-20.265624-11.191407 0-20.265625 9.074218-20.265625 20.265624zm0 0" fill="#efa492"/><path d="m208.894531 197.511719c6.523438 0 11.8125 5.289062 11.8125 11.8125v18.515625c0 6.523437-5.289062 11.8125-11.8125 11.8125-6.523437 0-11.8125-5.289063-11.8125-11.8125v-18.515625c0-6.523438 5.289063-11.8125 11.8125-11.8125zm0 0" fill="#36435e"/><path d="m303.074219 197.511719c6.527343 0 11.8125 5.289062 11.8125 11.8125v18.515625c0 6.523437-5.285157 11.8125-11.8125 11.8125-6.523438 0-11.8125-5.289063-11.8125-11.8125v-18.515625c0-6.523438 5.289062-11.8125 11.8125-11.8125zm0 0" fill="#36435e"/><path d="m364.398438 172.09375v22.308594c-33.355469-13.980469-69.976563-21.710938-108.410157-21.710938-38.441406 0-75.0625 7.730469-108.417969 21.710938v-22.308594c14.984376-17.847656 34.285157-31.929688 56.308594-40.644531 16.125-6.394531 33.710938-9.90625 52.109375-9.90625 18.390625 0 35.976563 3.511719 52.101563 9.90625 22.015625 8.714843 41.324218 22.796875 56.308594 40.644531zm0 0" fill="#efa492"/><path d="m255.984375 156.753906c46.335937 0 90.042969 11.238282 128.5625 31.121094-22.429687-48.566406-71.554687-82.269531-128.5625-82.269531-57.003906 0-106.132813 33.707031-128.558594 82.269531 38.519531-19.882812 82.226563-31.121094 128.558594-31.121094zm0 0" fill="#ffda73"/><path d="m378.972656 427.3125v53.265625c-20.9375 11.496094-43.664062 20.148437-67.65625 25.425781-10.59375 2.339844-21.441406 4.011719-32.484375 4.992188-7.523437.667968-15.140625 1.003906-22.832031 1.003906-7.699219 0-15.316406-.34375-22.851562-1.011719-11.035157-.972656-21.871094-2.644531-32.453126-4.984375-10.835937-2.382812-21.402343-5.457031-31.671874-9.164062-12.476563-4.503906-24.503907-9.960938-35.996094-16.269532v-53.257812zm0 0" fill="#ffda73"/><path d="m169.023438 427.3125v69.527344c-12.476563-4.503906-24.503907-9.960938-35.996094-16.269532v-53.257812zm0 0" fill="#f9a54b"/><path d="m311.316406 506.003906c-10.59375 2.339844-21.441406 4.011719-32.484375 4.992188-7.523437.667968-15.140625 1.003906-22.832031 1.003906-7.699219 0-15.316406-.34375-22.851562-1.011719-11.035157-.972656-21.871094-2.644531-32.453126-4.984375.898438-2.601562 2.378907-4.945312 4.292969-6.855468 3.292969-3.292969 7.835938-5.320313 12.851563-5.320313h76.320312c7.941406 0 14.691406 5.078125 17.15625 12.175781zm0 0" fill="#f9a54b"/><path d="m285.261719 478.160156-31.347657-14.972656-31.34375 14.972656v-50.847656h62.691407zm0 0" fill="#f76c59"/></svg>