<svg height="512pt" viewBox="0 0 512 512" width="512pt" xmlns="http://www.w3.org/2000/svg"><path d="m512 256c0 141.386719-114.613281 256-256 256s-256-114.613281-256-256 114.613281-256 256-256 256 114.613281 256 256zm0 0" fill="#73b287"/><path d="m239.703125 327.011719-25.726563 84.960937-27.394531 90.496094c-20.535156-5.765625-40.011719-14.03125-58.097656-24.4375l20-66.058594 31.21875-103.121094zm0 0" fill="#ffda73"/><path d="m383.523438 478.03125c-18.089844 10.40625-37.566407 18.671875-58.097657 24.4375h-.011719l-27.394531-90.496094-25.726562-84.960937 60.007812-18.160157 31.222657 103.121094zm0 0" fill="#ffda73"/><path d="m179.703125 308.847656 60 18.160156-25.726563 84.960938h-65.492187zm0 0" fill="#f9a54b"/><path d="m363.523438 411.96875h-65.503907l-25.726562-84.960938 60.007812-18.160156zm0 0" fill="#f9a54b"/><path d="m60.648438 32.433594h390.699218v308.757812h-390.699218zm0 0" fill="#e6e6e6"/><path d="m483.039062 347.699219c-1.046874 6.519531-2.175781 12.988281-3.386718 19.382812-1.828125 9.675781-10.300782 16.675781-20.144532 16.675781h-407.007812c-9.84375 0-18.316406-7-20.148438-16.675781-1.210937-6.394531-2.339843-12.863281-3.382812-19.382812-1.996094-12.464844 7.636719-23.75 20.25-23.75h413.570312c12.609376 0 22.246094 11.285156 20.25 23.75zm0 0" fill="#f9a54b"/><path d="m60.648438 21.984375h390.699218v55.691406h-390.699218zm0 0" fill="#ccc"/><path d="m483.039062 32.671875c-1.046874 6.53125-2.175781 13-3.386718 19.394531-1.828125 9.675782-10.300782 16.664063-20.144532 16.664063h-407.007812c-9.84375 0-18.316406-6.988281-20.148438-16.664063-1.210937-6.394531-2.339843-12.863281-3.382812-19.394531-1.996094-12.453125 7.636719-23.738281 20.25-23.738281h413.570312c12.609376 0 22.246094 11.285156 20.25 23.738281zm0 0" fill="#f9a54b"/><path d="m483.039062 347.699219c-1.046874 6.519531-2.175781 12.988281-3.386718 19.382812-1.828125 9.675781-10.300782 16.675781-20.144532 16.675781h-375.660156c-9.855468 0-18.320312-7-20.148437-16.675781-1.210938-6.394531-2.339844-12.863281-3.382813-19.382812-1.996094-12.464844 7.636719-23.75 20.25-23.75h382.222656c12.609376 0 22.246094 11.285156 20.25 23.75zm0 0" fill="#ffda73"/><path d="m483.039062 32.671875c-1.046874 6.53125-2.175781 13-3.386718 19.394531-1.828125 9.675782-10.300782 16.664063-20.144532 16.664063h-375.660156c-9.855468 0-18.320312-6.988281-20.148437-16.664063-1.210938-6.394531-2.339844-12.863281-3.382813-19.394531-1.996094-12.453125 7.636719-23.738281 20.25-23.738281h382.222656c12.609376 0 22.246094 11.285156 20.25 23.738281zm0 0" fill="#ffda73"/><path d="m230.921875 191.773438h-25.597656v101.351562h101.351562v-101.351562zm39.707031 10.449218v33.5625l-14.628906-7.699218-14.628906 7.699218v-33.5625zm25.597656 0v80.453125h-80.453124v-80.453125h15.148437v50.871094l25.078125-13.199219 25.078125 13.199219v-50.871094zm0 0" fill="#55627a"/><path d="m250.777344 104.496094v71.675781h10.445312v-71.675781l13.742188 13.742187 7.386718-7.390625-26.351562-26.351562-26.351562 26.351562 7.386718 7.390625zm0 0" fill="#f76c59"/><path d="m333.636719 121.003906v10.449219h19.429687l-32.457031 32.457031 7.386719 7.386719 32.457031-32.457031v19.429687h10.449219v-37.265625zm0 0" fill="#f76c59"/><path d="m178.363281 131.453125v-10.449219h-37.265625v37.265625h10.449219v-19.429687l32.457031 32.457031 7.386719-7.386719-32.457031-32.457031zm0 0" fill="#f76c59"/><g fill="#55627a"><path d="m331.269531 248.199219h83.066407v10.449219h-83.066407zm0 0"/><path d="m78.9375 91.992188h83.066406v10.449218h-83.066406zm0 0"/><path d="m331.269531 278.988281h54.855469v10.449219h-54.855469zm0 0"/><path d="m83.640625 124.90625h33.957031v10.449219h-33.957031zm0 0"/></g></svg>