<svg height="512pt" viewBox="0 0 512 512" width="512pt" xmlns="http://www.w3.org/2000/svg"><path d="m512 256c0 141.386719-114.613281 256-256 256s-256-114.613281-256-256 114.613281-256 256-256 256 114.613281 256 256zm0 0" fill="#73b287"/><path d="m484.175781 55.660156v316.53125c-18.335937 35.933594-44.90625 66.96875-77.238281 90.601563-42.316406 30.941406-94.488281 49.207031-150.933594 49.207031-56.445312 0-108.617187-18.265625-150.9375-49.207031-16.152344-11.804688-30.863281-25.460938-43.84375-40.664063-12.988281-15.203125-24.21875-31.953125-33.394531-49.9375v-316.53125zm0 0" fill="#ffda73"/><path d="m406.9375 462.792969c-42.316406 30.941406-94.488281 49.207031-150.933594 49.207031-56.445312 0-108.617187-18.265625-150.9375-49.207031zm0 0" fill="#f9a54b"/><path d="m61.222656 55.660156v366.46875c-12.988281-15.203125-24.21875-31.953125-33.394531-49.9375v-316.53125zm0 0" fill="#f9a54b"/><path d="m317.132812 132.742188-61.132812-36.257813-61.132812 36.257813v-77.082032h122.265624zm0 0" fill="#f76c59"/><path d="m357.164062 185.25c-27.019531-27.023438-62.945312-41.902344-101.160156-41.902344-30.167968 0-59.019531 9.28125-83.4375 26.835938-7.246094 5.207031-14.042968 11.132812-20.195312 17.601562-2.285156 2.394532-4.5 4.890625-6.574219 7.402344-3.34375 4.03125-6.5 8.292969-9.382813 12.671875-15.355468 23.335937-23.476562 50.496094-23.476562 78.550781 0 35.972656 13.195312 69.910156 37.277344 96.304688 1.875 2.054687 5.007812 2.386718 7.214844.695312 1.296874-.996094 2.558593-2.03125 3.800781-3.09375 2.292969-1.96875 2.53125-5.441406.492187-7.667968-20.828125-22.75-33.550781-53.035157-33.550781-86.238282 0-25.070312 7.246094-49.335937 20.960937-70.171875 2.578126-3.914062 5.398438-7.722656 8.398438-11.339843 1.851562-2.246094 3.828125-4.464844 5.867188-6.609376 5.507812-5.785156 11.582031-11.082031 18.058593-15.738281 21.808594-15.683593 47.585938-23.972656 74.546875-23.972656 70.484375 0 127.832032 57.347656 127.832032 127.832031 0 36.003906-15.308594 70.535156-42 94.730469-5.296876 4.804687-11.027344 9.1875-17.039063 13.03125-20.523437 13.132813-44.3125 20.074219-68.792969 20.074219-11.425781 0-22.5-1.519532-33.042968-4.347656-3.367188-.90625-4.960938-4.765626-3.246094-7.800782 2.109375-3.738281-.816406-8.316406-5.09375-7.972656l-24.289063 1.964844c-3.78125.308594-6.054687 4.335937-4.363281 7.726562l10.867188 21.8125c1.914062 3.84375 7.34375 3.984375 9.457031.246094l.304687-.539062c1.246094-2.210938 3.867188-3.226563 6.285156-2.464844 13.769532 4.34375 28.265626 6.605468 43.121094 6.605468 27.394532 0 54.023438-7.769531 77-22.472656 6.726563-4.300781 13.140625-9.207031 19.0625-14.578125 29.871094-27.078125 47-65.71875 47-106.011719.003906-38.214843-14.878906-74.140624-41.902344-101.164062zm0 0" fill="#f76c59"/><g fill="#fcf8f2"><path d="m210.550781 210.28125c22.058594 0 40.695313 15.023438 40.695313 37.84375 0 40.886719-61.613282 54.199219-61.613282 76.070312v7.226563h55.910157c3.421875 0 6.65625 3.992187 6.65625 8.746094 0 4.757812-3.234375 9.128906-6.65625 9.128906h-67.703125c-3.800782 0-8.9375-2.660156-8.9375-6.65625v-18.445313c0-30.808593 62.1875-46.210937 62.1875-75.5 0-9.316406-6.085938-19.96875-20.539063-19.96875-10.648437 0-19.207031 5.898438-19.207031 18.828126 0 3.804687-3.992188 7.605468-10.648438 7.605468-5.324218 0-9.128906-2.660156-9.128906-11.21875 0-20.347656 18.257813-33.660156 38.984375-33.660156zm0 0"/><path d="m306.78125 318.109375h-46.78125c-3.996094 0-7.039062-2.851563-7.039062-7.417969 0-1.328125.382812-2.851562 1.140624-4.183594l46.023438-90.710937c2.09375-3.992187 5.515625-5.515625 8.75-5.515625 3.800781 0 10.078125 3.042969 10.078125 7.796875 0 .953125-.378906 1.902344-.949219 3.042969l-39.175781 78.160156h27.953125v-26.242188c0-4.753906 4.945312-6.65625 10.078125-6.65625 4.945313 0 10.082031 1.902344 10.082031 6.65625v26.242188h9.316406c4.566407 0 6.847657 4.753906 6.847657 9.511719 0 4.5625-3.234375 9.316406-6.847657 9.316406h-9.316406v24.53125c0 4.375-5.136718 6.65625-10.082031 6.65625-5.132813 0-10.078125-2.28125-10.078125-6.65625zm0 0"/></g></svg>