<?xml version="1.0" encoding="UTF-8"?>
<svg width="38px" height="62px" viewBox="0 0 38 62" version="1.1" xmlns="http://www.w3.org/2000/svg" xmlns:xlink="http://www.w3.org/1999/xlink">
    <!-- Generator: Sketch 59 (86127) - https://sketch.com -->
    <title>Shape</title>
    <desc>Created with Sketch.</desc>
    <g id="Page-1" stroke="none" stroke-width="1" fill="none" fill-rule="evenodd">
        <g id="Servicios" transform="translate(-145.000000, -15.000000)" fill="#FFFFFF" fill-rule="nonzero">
            <g id="Group-2" transform="translate(103.000000, 15.000000)">
                <g id="logo-summit" transform="translate(1.000000, 0.000000)">
                    <path d="M70.1347279,5.78941176 L68.912381,1.23529412 L64.3481293,0 L61.0062245,3.34352941 L63.3356803,3.96529412 L43.3994898,23.9111765 C41.3920464,25.9222784 41.3920464,29.1800745 43.3994898,31.1911765 L49.3877551,37.1905882 C50.3527524,38.1574029 51.6623787,38.7006673 53.0280442,38.7006673 C54.3937097,38.7006673 55.703336,38.1574029 56.6683333,37.1905882 L59.232381,34.6252941 L59.232381,34.6252941 L66.5006122,27.3535294 C67.0692836,26.7860144 67.989764,26.7860144 68.5584354,27.3535294 L73.9540476,32.7517647 C74.5212868,33.3207125 74.5212868,34.2416404 73.9540476,34.8105882 L54.5281973,54.2458824 L53.9355442,52.0347059 L50.622449,55.3782353 L51.8571429,59.9447059 L56.4213946,61.18 L59.7591837,57.8364706 L57.4338435,57.2147059 L77.1889456,37.45 C79.1968615,35.4374861 79.1968615,32.1783962 77.1889456,30.1658824 L71.2006803,24.1417647 C69.1891443,22.1328727 65.931638,22.1328727 63.920102,24.1417647 L61.3231293,26.7111765 L61.3231293,26.7111765 L54.0672449,33.9788235 C53.4985735,34.5463385 52.5780931,34.5463385 52.0094218,33.9788235 L46.6096939,28.5805882 C46.0424547,28.0116404 46.0424547,27.0907125 46.6096939,26.5217647 L66.2001701,6.92176471 L66.7928231,9.13294118 L70.1347279,5.78941176 Z M55.1743537,56.6011765 L55.1743537,56.5394118 L55.2484354,56.6176471 L55.1743537,56.6011765 Z M65.5087415,4.55 L65.5704762,4.55 L65.5704762,4.61176471 L65.5087415,4.55 Z" id="Shape"></path>
                </g>
            </g>
        </g>
    </g>
</svg>