<?xml version="1.0" encoding="UTF-8"?>
<svg width="38px" height="62px" viewBox="0 0 38 62" version="1.1" xmlns="http://www.w3.org/2000/svg" xmlns:xlink="http://www.w3.org/1999/xlink">
    <!-- Generator: Sketch 59 (86127) - https://sketch.com -->
    <title>logo summit</title>
    <desc>Created with Sketch.</desc>
    <g id="Page-1" stroke="none" stroke-width="1" fill="none" fill-rule="evenodd">
        <g id="Inicio" transform="translate(-104.000000, -2755.000000)" fill="#008AAB" fill-rule="nonzero">
            <g id="logo-summit" transform="translate(104.000000, 2755.000000)">
                <path d="M29.1347279,5.78941176 L27.912381,1.23529412 L23.3481293,0 L20.0062245,3.34352941 L22.3356803,3.96529412 L2.3994898,23.9111765 C0.392046416,25.9222784 0.392046416,29.1800745 2.3994898,31.1911765 L8.3877551,37.1905882 C9.3527524,38.1574029 10.6623787,38.7006673 12.0280442,38.7006673 C13.3937097,38.7006673 14.703336,38.1574029 15.6683333,37.1905882 L18.232381,34.6252941 L18.232381,34.6252941 L25.5006122,27.3535294 C26.0692836,26.7860144 26.989764,26.7860144 27.5584354,27.3535294 L32.9540476,32.7517647 C33.5212868,33.3207125 33.5212868,34.2416404 32.9540476,34.8105882 L13.5281973,54.2458824 L12.9355442,52.0347059 L9.62244898,55.3782353 L10.8571429,59.9447059 L15.4213946,61.18 L18.7591837,57.8364706 L16.4338435,57.2147059 L36.1889456,37.45 C38.1968615,35.4374861 38.1968615,32.1783962 36.1889456,30.1658824 L30.2006803,24.1417647 C28.1891443,22.1328727 24.931638,22.1328727 22.920102,24.1417647 L20.3231293,26.7111765 L20.3231293,26.7111765 L13.0672449,33.9788235 C12.4985735,34.5463385 11.5780931,34.5463385 11.0094218,33.9788235 L5.60969388,28.5805882 C5.04245467,28.0116404 5.04245467,27.0907125 5.60969388,26.5217647 L25.2001701,6.92176471 L25.7928231,9.13294118 L29.1347279,5.78941176 Z M14.1743537,56.6011765 L14.1743537,56.5394118 L14.2484354,56.6176471 L14.1743537,56.6011765 Z M24.5087415,4.55 L24.5704762,4.55 L24.5704762,4.61176471 L24.5087415,4.55 Z" id="Shape"></path>
            </g>
        </g>
    </g>
</svg>