<svg xmlns="http://www.w3.org/2000/svg" viewBox="0 0 292.97 254.53"><defs><style>.cls-1{fill:#1d1d1b;}.cls-2{fill:#008aab;}</style></defs><g id="Capa_2" data-name="Capa 2"><g id="Capa_1-2" data-name="Capa 1"><path class="cls-1" d="M10.88,190.85a2.3,2.3,0,1,0,.09,4.59H27.66c5.68.14,10.41,4.16,10.41,10S32.72,215.63,27.24,216H.05v-8H27.14a2.3,2.3,0,1,0,.1-4.59H9.88c-5.53-.38-9.88-4.35-9.88-10a10.66,10.66,0,0,1,10-10.59H34.85v8Z"/><path class="cls-1" d="M54.61,182.86h8.66v16.6a8.24,8.24,0,0,0,8.37,8.23h6.81a8.24,8.24,0,0,0,8.37-8.23V182.91h8.6v16.55c0,8.7-7,16.41-15.6,16.55h-9.6c-8.66-.14-15.61-7.85-15.61-16.55Z"/><path class="cls-1" d="M120.67,194.68V216H112V182.86h8.7l12,11.11,12-11.11h8.74V216H144.6V194.68l-12,11.16Z"/><path class="cls-1" d="M178.59,194.68V216h-8.7V182.86h8.7l12,11.11,12-11.11h8.75V216h-8.75V194.68l-12,11.16Z"/><path class="cls-1" d="M229.7,216V182.86h8.71V216Z"/><path class="cls-1" d="M278.31,216h-8.7V190.85H255v-8h38v8H278.31Z"/><path class="cls-2" d="M170.41,14.06,167.44,3,156.35,0l-8.12,8.12,5.66,1.51L105.45,58.07a12.51,12.51,0,0,0,0,17.68L120,90.32a12.5,12.5,0,0,0,17.69,0l6.23-6.23h0l17.66-17.66a3.54,3.54,0,0,1,5,0l13.11,13.11a3.54,3.54,0,0,1,0,5l-47.2,47.2-1.44-5.37L123,134.49l3,11.09,11.09,3,8.11-8.12-5.65-1.51,48-48a12.52,12.52,0,0,0,0-17.69L173,58.63a12.52,12.52,0,0,0-17.69,0L149,64.87h0L131.37,82.52a3.54,3.54,0,0,1-5,0L113.25,69.41a3.54,3.54,0,0,1,0-5l47.6-47.6,1.44,5.37Zm-36.35,123.4,0-.15.18.19ZM159.17,11.05l.15,0,0,.15Z"/><path class="cls-1" d="M5,235H0v-1.31H11.49V235h-5v14.7H5Z"/><path class="cls-1" d="M15.06,238.16h1.38v1.63h.07A3.12,3.12,0,0,1,19.58,238a3.84,3.84,0,0,1,3.12,1.43l-.88.88h-.2a2.82,2.82,0,0,0-2.31-1.09c-1.83,0-2.85,1.2-2.85,3.26v7.19h-1.4Z"/><path class="cls-1" d="M26.12,246a2.92,2.92,0,0,1,3.19-3.1H34v-1.11a2.35,2.35,0,0,0-2.42-2.58H30.14a2.65,2.65,0,0,0-2.35,1.09h-.2l-.88-.88A3.89,3.89,0,0,1,29.92,238h2a3.46,3.46,0,0,1,3.5,3.67v8H34v-1.92h0a4.11,4.11,0,0,1-3.76,2.06A3.76,3.76,0,0,1,26.12,246ZM34,245v-.86H29.44A1.7,1.7,0,0,0,27.57,246a2.54,2.54,0,0,0,2.8,2.58A3.52,3.52,0,0,0,34,245Z"/><path class="cls-1" d="M40.86,238.16h1.38v1.63h.07A3,3,0,0,1,45.09,238h1.65a3.75,3.75,0,0,1,3.78,4v7.69h-1.4v-7.51a2.64,2.64,0,0,0-2.56-2.94H45.09c-1.69,0-2.83,1.27-2.83,3.26v7.19h-1.4Z"/><path class="cls-1" d="M55.74,248.4l.88-.88h.21a2.62,2.62,0,0,0,2.35,1.09h1.76a1.87,1.87,0,0,0,2.1-2,1.78,1.78,0,0,0-1.53-1.86l-3.08-.65a3,3,0,0,1-2.64-3c0-1.88,1.29-3.08,3.34-3.08H61a4,4,0,0,1,3.24,1.43l-.89.88h-.22a2.6,2.6,0,0,0-2.35-1.09H59.29c-1.33,0-2.1.68-2.1,1.86a1.75,1.75,0,0,0,1.51,1.81l3.06.65a3,3,0,0,1,2.69,3.08,3.05,3.05,0,0,1-3.35,3.19H59A3.89,3.89,0,0,1,55.74,248.4Z"/><path class="cls-1" d="M69.92,238.16H71.3v1.51h.07A3.06,3.06,0,0,1,74.15,238h1.92a3.76,3.76,0,0,1,3.78,4v3.85a3.76,3.76,0,0,1-3.78,4H74.15a3,3,0,0,1-2.76-1.65h-.07v6h-1.4Zm6,10.45c1.51,0,2.55-1.2,2.55-2.94v-3.49c0-1.74-1-2.94-2.55-2.94H74.15c-1.68,0-2.83,1.36-2.83,3.4v2.57c0,2,1.15,3.4,2.83,3.4Z"/><path class="cls-1" d="M84.78,245.85V242a3.76,3.76,0,0,1,3.8-4h2.14a3.76,3.76,0,0,1,3.8,4v3.85a3.76,3.76,0,0,1-3.8,4H88.58A3.76,3.76,0,0,1,84.78,245.85Zm5.79,2.76c1.51,0,2.55-1.2,2.55-2.94v-3.49c0-1.74-1-2.94-2.55-2.94H88.73c-1.51,0-2.55,1.2-2.55,2.94v3.49c0,1.74,1,2.94,2.55,2.94Z"/><path class="cls-1" d="M99.72,238.16h1.38v1.63h.07a3.13,3.13,0,0,1,3.08-1.77,3.84,3.84,0,0,1,3.12,1.43l-.88.88h-.21a2.8,2.8,0,0,0-2.3-1.09c-1.84,0-2.85,1.2-2.85,3.26v7.19H99.72Z"/><path class="cls-1" d="M118.27,249.19a2.77,2.77,0,0,1-1.77.64h-.43a2.51,2.51,0,0,1-2.6-2.69v-7.76h-2.55v-1.22h2.55v-3h1.4v3h3.26v1.22h-3.26v7.76a1.34,1.34,0,0,0,1.41,1.47,1.5,1.5,0,0,0,.9-.28h.2Z"/><path class="cls-1" d="M122.77,245.85V242a3.76,3.76,0,0,1,3.8-4h1.83a3.76,3.76,0,0,1,3.8,4v2.26h-8v1.41c0,1.74,1,2.94,2.55,2.94h1.79a2.61,2.61,0,0,0,2.35-1.09h.21l.88.88a3.89,3.89,0,0,1-3.21,1.43h-2.17A3.76,3.76,0,0,1,122.77,245.85Zm8-2.81v-.86c0-1.74-1-2.94-2.55-2.94h-1.52c-1.51,0-2.55,1.2-2.55,2.94V243Z"/><path class="cls-1" d="M137.15,248.4l.88-.88h.2a2.65,2.65,0,0,0,2.36,1.09h1.76a1.87,1.87,0,0,0,2.1-2,1.78,1.78,0,0,0-1.54-1.86l-3.07-.65a3,3,0,0,1-2.65-3c0-1.88,1.29-3.08,3.35-3.08h1.9a4,4,0,0,1,3.23,1.43l-.88.88h-.23a2.58,2.58,0,0,0-2.35-1.09H140.7c-1.34,0-2.11.68-2.11,1.86a1.76,1.76,0,0,0,1.52,1.81l3,.65a3,3,0,0,1,2.69,3.08,3.05,3.05,0,0,1-3.34,3.19h-2.15A3.89,3.89,0,0,1,137.15,248.4Z"/><path class="cls-1" d="M161.3,246v-1.27a3.37,3.37,0,0,1,2.21-3.21,3.18,3.18,0,0,1-2.08-3.1v-1.11a3.74,3.74,0,0,1,4-3.79h3.05a4.21,4.21,0,0,1,3.4,1.62l-.91.93h-.22a3,3,0,0,0-2.6-1.24h-2.54a2.47,2.47,0,0,0-2.64,2.66v.77a2.41,2.41,0,0,0,2.64,2.67h.75v1.29h-.88a2.42,2.42,0,0,0-2.65,2.67v.93a2.48,2.48,0,0,0,2.65,2.67h3.21a2.49,2.49,0,0,0,2.64-2.67v-.93a2.44,2.44,0,0,0-2.73-2.67H168V241h6.13v1.29h-2.83v.09a2.68,2.68,0,0,1,1.52,2.69v1a3.77,3.77,0,0,1-4,3.8h-3.55A3.75,3.75,0,0,1,161.3,246Z"/><path class="cls-1" d="M189.36,233.68h1.49v14.7h7.94v1.31h-9.43Z"/><path class="cls-1" d="M202.77,245.85V242a3.76,3.76,0,0,1,3.8-4h2.15a3.76,3.76,0,0,1,3.8,4v3.85a3.76,3.76,0,0,1-3.8,4h-2.15A3.76,3.76,0,0,1,202.77,245.85Zm5.79,2.76a2.64,2.64,0,0,0,2.56-2.94v-3.49a2.64,2.64,0,0,0-2.56-2.94h-1.83a2.64,2.64,0,0,0-2.56,2.94v3.49a2.64,2.64,0,0,0,2.56,2.94Z"/><path class="cls-1" d="M216.5,251.5a2.73,2.73,0,0,1,2.3-2.74,1.74,1.74,0,0,1,.14-3.18v-.05a3.23,3.23,0,0,1-1.72-3v-1.09a3.33,3.33,0,0,1,3.37-3.44H227v1.22H224.8a2.59,2.59,0,0,1,1.08,2.22v1.09a3.31,3.31,0,0,1-3.37,3.43h-2c-.93,0-1.49.36-1.49,1s.52,1,1.35,1h3.37a3.23,3.23,0,0,1,3.44,3.33,3.15,3.15,0,0,1-3.44,3.23h-3.82C217.85,254.53,216.5,253.33,216.5,251.5Zm7.19,1.81a2,2,0,1,0,0-3.93h-3.35c-1.54,0-2.46.74-2.46,2a1.92,1.92,0,0,0,2.05,2Zm-1.34-8.55a2.12,2.12,0,0,0,2.13-2.26v-1a2.15,2.15,0,0,0-2.13-2.27h-1.58a2.13,2.13,0,0,0-2.15,2.27v1a2.14,2.14,0,0,0,2.15,2.26Z"/><path class="cls-1" d="M231.67,238.16h1.4v11.53h-1.4Zm.13-1.47,1.66-3h1.44v.39l-1.85,3H231.8Z"/><path class="cls-1" d="M238.57,248.4l.88-.88h.2a2.65,2.65,0,0,0,2.35,1.09h1.77a1.87,1.87,0,0,0,2.1-2,1.78,1.78,0,0,0-1.54-1.86l-3.07-.65a3,3,0,0,1-2.65-3c0-1.88,1.29-3.08,3.35-3.08h1.9a4,4,0,0,1,3.23,1.43l-.88.88H246a2.58,2.58,0,0,0-2.35-1.09h-1.51c-1.34,0-2.11.68-2.11,1.86a1.76,1.76,0,0,0,1.52,1.81l3.05.65a3,3,0,0,1,2.69,3.08,3.05,3.05,0,0,1-3.34,3.19h-2.15A3.89,3.89,0,0,1,238.57,248.4Z"/><path class="cls-1" d="M258.87,249.19a2.72,2.72,0,0,1-1.76.64h-.43a2.51,2.51,0,0,1-2.6-2.69v-7.76h-2.56v-1.22h2.56v-3h1.4v3h3.26v1.22h-3.26v7.76a1.33,1.33,0,0,0,1.4,1.47,1.53,1.53,0,0,0,.91-.28h.2Z"/><path class="cls-1" d="M263.64,233.68h1.5v2h-1.5Zm0,4.48h1.42v11.53h-1.42Z"/><path class="cls-1" d="M270.86,245.85V242a3.76,3.76,0,0,1,3.8-4h2a4,4,0,0,1,3.22,1.43l-.89.88h-.22a2.58,2.58,0,0,0-2.36-1.09h-1.55a2.64,2.64,0,0,0-2.56,2.94v3.49a2.64,2.64,0,0,0,2.56,2.94h1.6a2.58,2.58,0,0,0,2.35-1.09H279l.88.88a4,4,0,0,1-3.23,1.43h-2A3.76,3.76,0,0,1,270.86,245.85Z"/><path class="cls-1" d="M283.7,246a2.92,2.92,0,0,1,3.19-3.1h4.68v-1.11a2.35,2.35,0,0,0-2.42-2.58h-1.42a2.62,2.62,0,0,0-2.35,1.09h-.21l-.88-.88A3.89,3.89,0,0,1,287.5,238h2a3.46,3.46,0,0,1,3.5,3.67v8h-1.38v-1.92h0a4.1,4.1,0,0,1-3.76,2.06A3.77,3.77,0,0,1,283.7,246Zm7.87-1v-.86H287a1.71,1.71,0,0,0-1.88,1.88,2.55,2.55,0,0,0,2.8,2.58A3.52,3.52,0,0,0,291.57,245Z"/></g></g></svg>