<svg height="512pt" viewBox="0 0 512 512" width="512pt" xmlns="http://www.w3.org/2000/svg"><path d="m512 256c0 42.789062-10.492188 83.132812-29.070312 118.585938-.039063.082031-.082032.167968-.125.261718-5.402344 10.292969-11.484376 20.164063-18.191407 29.570313-10.75 15.085937-23.113281 28.964843-36.8125 41.355469-.039062.03125-.070312.074218-.113281.117187-45.410156 41.085937-105.628906 66.109375-171.6875 66.109375-68.230469 0-130.226562-26.6875-176.105469-70.195312-14.285156-13.542969-27.011719-28.726563-37.878906-45.222657-.25-.378906-.480469-.742187-.710937-1.109375-.21875-.34375-.429688-.679687-.648438-1.011718-3.375-5.226563-6.5625-10.574219-9.550781-16.050782 0-.011718 0-.011718 0-.011718-.070313-.125-.132813-.25-.207031-.375-.636719-1.179688-1.277344-2.363282-1.890626-3.554688-.691406-1.316406-1.371093-2.640625-2.039062-3.96875-.667969-1.335938-1.328125-2.675781-1.964844-4.023438-.648437-1.335937-1.285156-2.695312-1.902344-4.054687-.59375-1.292969-1.179687-2.601563-1.753906-3.917969-.042968-.09375-.082031-.1875-.117187-.28125-.582031-1.335937-1.15625-2.675781-1.710938-4.023437-.574219-1.378907-1.140625-2.769531-1.695312-4.160157-.542969-1.398437-1.085938-2.796874-1.605469-4.210937-.230469-.605469-.460938-1.199219-.679688-1.804687-.191406-.511719-.378906-1.035157-.554687-1.546876-.230469-.617187-.449219-1.246093-.667969-1.871093-.449218-1.285157-.890625-2.570313-1.316406-3.867188-8.433594-25.378906-13-52.527343-13-80.738281 0-141.386719 114.613281-256 256-256s256 114.613281 256 256zm0 0" fill="#36435e"/><path d="m239.398438 149.589844h174.457031c11.890625 0 21.53125 9.640625 21.53125 21.53125v63.457031c0 11.890625-9.640625 21.535156-21.53125 21.535156h-174.457031c-11.894532 0-21.535157-9.640625-21.535157-21.535156v-63.457031c0-11.890625 9.640625-21.53125 21.535157-21.53125zm0 0" fill="#52b5d8"/><g fill="#3da5c1"><path d="m258.867188 247.472656c-3.652344 0-6.613282-2.960937-6.613282-6.613281v-76.023437c0-3.648438 2.960938-6.609376 6.613282-6.609376 3.648437 0 6.609374 2.960938 6.609374 6.609376v76.023437c0 3.652344-2.960937 6.613281-6.609374 6.613281zm0 0"/><path d="m304.039062 247.472656c-3.652343 0-6.609374-2.960937-6.609374-6.613281v-76.023437c0-3.648438 2.957031-6.609376 6.609374-6.609376 3.652344 0 6.609376 2.960938 6.609376 6.609376v76.023437c0 3.652344-2.957032 6.613281-6.609376 6.613281zm0 0"/><path d="m349.210938 247.472656c-3.648438 0-6.609376-2.960937-6.609376-6.613281v-76.023437c0-3.648438 2.960938-6.609376 6.609376-6.609376 3.652343 0 6.613281 2.960938 6.613281 6.609376v76.023437c-.003907 3.652344-2.960938 6.613281-6.613281 6.613281zm0 0"/><path d="m394.386719 247.472656c-3.652344 0-6.613281-2.960937-6.613281-6.613281v-76.023437c0-3.648438 2.960937-6.609376 6.613281-6.609376 3.648437 0 6.609375 2.960938 6.609375 6.609376v76.023437c0 3.652344-2.960938 6.613281-6.609375 6.613281zm0 0"/></g><path d="m21.875 43.066406h174.457031c11.890625 0 21.53125 9.640625 21.53125 21.53125v63.457032c0 11.894531-9.640625 21.535156-21.53125 21.535156h-174.457031c-11.890625 0-21.535156-9.640625-21.535156-21.535156v-63.457032c.003906-11.890625 9.644531-21.53125 21.535156-21.53125zm0 0" fill="#ffda73"/><path d="m41.34375 140.949219c-3.652344 0-6.613281-2.960938-6.613281-6.609375v-76.023438c0-3.652344 2.960937-6.613281 6.613281-6.613281s6.609375 2.960937 6.609375 6.613281v76.023438c0 3.648437-2.957031 6.609375-6.609375 6.609375zm0 0" fill="#f9a54b"/><path d="m86.515625 140.949219c-3.648437 0-6.609375-2.960938-6.609375-6.609375v-76.023438c0-3.652344 2.960938-6.613281 6.609375-6.613281 3.652344 0 6.613281 2.960937 6.613281 6.613281v76.023438c0 3.648437-2.960937 6.609375-6.613281 6.609375zm0 0" fill="#f9a54b"/><path d="m131.691406 140.949219c-3.652344 0-6.613281-2.960938-6.613281-6.609375v-76.023438c0-3.652344 2.960937-6.613281 6.613281-6.613281 3.648438 0 6.609375 2.960937 6.609375 6.613281v76.023438c0 3.648437-2.960937 6.609375-6.609375 6.609375zm0 0" fill="#f9a54b"/><path d="m176.863281 140.949219c-3.652343 0-6.613281-2.960938-6.613281-6.609375v-76.023438c0-3.652344 2.960938-6.613281 6.613281-6.613281 3.648438 0 6.609375 2.960937 6.609375 6.613281v76.023438c0 3.648437-2.960937 6.609375-6.609375 6.609375zm0 0" fill="#f9a54b"/><path d="m505.136719 315.109375c-4.347657 18.433594-10.703125 36.082031-18.800781 52.726563-1.097657 2.265624-2.234376 4.511718-3.40625 6.75-5.558594 10.617187-11.847657 20.804687-18.796876 30.480468-2.421874 3.382813-4.929687 6.71875-7.523437 9.976563-8.367187 10.542969-17.542969 20.40625-27.4375 29.488281-8.558594 7.867188-17.648437 15.160156-27.21875 21.808594l-256.933594 20.40625c-42.734375-20.574219-78.867187-52.675782-104.363281-92.285156-.636719-.953126-1.242188-1.914063-1.847656-2.886719-1.789063-2.851563-3.523438-5.746094-5.195313-8.683594-.855469-1.492187-1.691406-2.988281-2.507812-4.492187-5.695313-10.425782-10.6875-21.304688-14.886719-32.570313-.660156-1.734375-1.296875-3.46875-1.902344-5.222656 12.027344-8.046875 21.492188-20.542969 21.492188-34.441407 0 0 28.117187 14.578126 28.117187 43.730469 20.824219 0 48.945313-19.78125 48.945313-43.730469 0 0 28.105468 14.578126 28.105468 43.730469 20.835938 0 48.945313-19.78125 48.945313-43.730469 0 0 28.117187 14.578126 28.117187 43.730469 20.824219 0 48.933594-19.78125 48.933594-43.730469 0 0 28.128906 14.578126 28.128906 43.730469 20.824219 0 48.929688-19.78125 48.929688-43.730469 0 0 28.109375 14.578126 28.109375 43.730469 20.84375 0 48.953125-19.78125 48.953125-43.730469 0 0 28.109375 14.578126 28.109375 43.730469 16.109375 0 36.589844-11.839843 45.035156-28.296875 2.214844-4.304687 6.539063-6.539062 10.898438-6.488281zm0 0" fill="#3da5c1"/><path d="m21.875 149.589844h174.457031c11.890625 0 21.53125 9.640625 21.53125 21.53125v63.457031c0 11.890625-9.640625 21.535156-21.53125 21.535156h-174.457031c-11.890625 0-21.535156-9.640625-21.535156-21.535156v-63.457031c.003906-11.890625 9.644531-21.53125 21.535156-21.53125zm0 0" fill="#f76c59"/><path d="m41.34375 247.472656c-3.652344 0-6.613281-2.960937-6.613281-6.613281v-76.023437c0-3.648438 2.960937-6.609376 6.613281-6.609376s6.609375 2.960938 6.609375 6.609376v76.023437c0 3.652344-2.957031 6.613281-6.609375 6.613281zm0 0" fill="#e85142"/><path d="m86.515625 247.472656c-3.648437 0-6.609375-2.960937-6.609375-6.613281v-76.023437c0-3.648438 2.960938-6.609376 6.609375-6.609376 3.652344 0 6.613281 2.960938 6.613281 6.609376v76.023437c0 3.652344-2.960937 6.613281-6.613281 6.613281zm0 0" fill="#e85142"/><path d="m131.691406 247.472656c-3.652344 0-6.613281-2.960937-6.613281-6.613281v-76.023437c0-3.648438 2.960937-6.609376 6.613281-6.609376 3.648438 0 6.609375 2.960938 6.609375 6.609376v76.023437c0 3.652344-2.960937 6.613281-6.609375 6.613281zm0 0" fill="#e85142"/><path d="m176.863281 247.472656c-3.652343 0-6.613281-2.960937-6.613281-6.613281v-76.023437c0-3.648438 2.960938-6.609376 6.613281-6.609376 3.648438 0 6.609375 2.960938 6.609375 6.609376v76.023437c0 3.652344-2.960937 6.613281-6.609375 6.613281zm0 0" fill="#e85142"/><path d="m510.765625 214.558594-1.304687 5.320312-26.988282 110.246094-1.609375 6.613281-2.238281 9.089844-14.492188 59.238281c-2.421874 3.382813-4.929687 6.71875-7.523437 9.976563-8.367187 10.542969-17.542969 20.40625-27.4375 29.488281-.460937.417969-.910156.835938-1.371094 1.242188-8.160156 7.398437-16.789062 14.273437-25.847656 20.566406-3.15625 2.191406-6.355469 4.3125-9.605469 6.363281-24.261718 15.304687-51.273437 26.644531-80.132812 33.101563h-112.398438c-15.339844-3.429688-30.144531-8.246094-44.304687-14.285157-1.117188-.480469-2.226563-.960937-3.332031-1.453125-.660157-.292968-1.296876-.582031-1.945313-.875-.8125-.367187-1.617187-.742187-2.421875-1.121094-.429688-.1875-.859375-.394531-1.277344-.59375-.3125-.148437-.613281-.292968-.917968-.4375-.199219-.097656-.398438-.191406-.597657-.292968-.75-.367188-1.503906-.734375-2.253906-1.097656-.953125-.472657-1.902344-.941407-2.84375-1.421876-.207031-.105468-.40625-.199218-.605469-.304687-1.078125-.5625-2.152344-1.125-3.230468-1.691406-.175782-.09375-.34375-.175781-.511719-.269531-1.304688-.703126-2.609375-1.414063-3.90625-2.132813-.136719-.074219-.261719-.148437-.398438-.21875-1.324219-.742187-2.644531-1.496094-3.949219-2.257813-1.503906-.867187-3.007812-1.765624-4.492187-2.675781-1.753906-1.074219-3.5-2.164062-5.234375-3.28125-1.734375-1.117187-3.449219-2.257812-5.152344-3.40625-.847656-.574219-1.691406-1.160156-2.539062-1.746093-.847656-.59375-1.683594-1.179688-2.519532-1.773438-.835937-.605469-1.671874-1.203125-2.496093-1.808594-.835938-.605468-1.652344-1.222656-2.476563-1.839844-1.328125-.992187-2.644531-2.003906-3.949218-3.019531-3.917969-3.0625-7.742188-6.226562-11.472657-9.527343-1.242187-1.097657-2.476562-2.207032-3.699219-3.324219-1.222656-1.117188-2.433593-2.246094-3.636718-3.386719-.917969-.875-1.839844-1.765625-2.746094-2.652344-.910156-.890625-1.820312-1.789062-2.71875-2.695312-.898438-.910156-1.785156-1.820313-2.675781-2.738282-.199219-.199218-.386719-.386718-.5625-.585937-.535157-.554687-1.066407-1.109375-1.589844-1.671875-.167969-.167969-.332031-.34375-.480469-.523438-.867187-.929687-1.722656-1.871093-2.582031-2.808593-.75-.828125-1.492187-1.664063-2.234375-2.5-.105469-.101563-.199219-.207031-.28125-.3125-.042969-.03125-.0625-.0625-.085938-.09375-.425781-.480469-.84375-.949219-1.242187-1.429688-.40625-.472656-.804687-.941406-1.210937-1.410156-1.671876-1.945313-3.300782-3.910156-4.890626-5.90625-.617187-.761719-1.222656-1.535156-1.828124-2.308594-.03125-.011719-.03125-.019531-.03125-.03125-.3125-.386719-.617188-.773437-.921876-1.171875-.070312-.082031-.132812-.164062-.195312-.257812-.511719-.671875-1.015625-1.328125-1.527344-1.996094-.367187-.460938-.710937-.921875-1.042968-1.390625-.492188-.648437-.972657-1.308594-1.453126-1.964844-1.527343-2.058593-3.011718-4.148437-4.441406-6.257812-.605468-.890625-1.210937-1.777344-1.808594-2.675781-.199218-.261719-.375-.523438-.53125-.792969-.648437-.972657-1.285156-1.945313-1.914062-2.925781-.074219-.09375-.136719-.191407-.1875-.285157-.5625-.855469-1.117188-1.734375-1.660156-2.601562-1.789063-2.851563-3.523438-5.746094-5.195313-8.683594-.855469-1.492187-1.691406-2.988281-2.507812-4.492187-.710938-1.304688-1.410157-2.613282-2.097657-3.929688-.773437-1.472656-1.527343-2.933594-2.257812-4.417969-.597656-1.179687-1.179688-2.371093-1.746094-3.574219-.585937-1.222656-1.167968-2.445312-1.722656-3.675781-.210938-.441406-.417969-.890625-.605469-1.339843-.410156-.867188-.796875-1.746094-1.183593-2.621094-.1875-.410156-.363282-.828125-.53125-1.246094-.492188-1.105469-.960938-2.214844-1.410157-3.332031-.042969-.050781-.0625-.113281-.085937-.1875-.449219-1.078125-.886719-2.164063-1.316406-3.25-.21875-.511719-.425782-1.035157-.613282-1.554688-.460937-1.140625-.898437-2.28125-1.316406-3.441406-.671875-1.722656-1.296875-3.46875-1.902344-5.222656-.449218-1.285157-.890625-2.570313-1.316406-3.867188-.367188-1.097656-.722656-2.191406-1.066406-3.300781-.355469-1.097656-.691406-2.203125-1.023438-3.3125-.324218-1.042969-.628906-2.089844-.929687-3.144531-.179688-.566407-.347657-1.140625-.492188-1.726563-.210937-.699218-.398437-1.398437-.585937-2.109375-.125-.417969-.230469-.835937-.335938-1.253906-.25-.898437-.480468-1.796875-.707031-2.707031-.316406-1.222656-.617187-2.453125-.910156-3.6875-1.496094-6.3125-2.769531-12.714844-3.792969-19.203125-.28125-1.734375-.535156-3.480469-.773438-5.238281-.125-.917969-.25-1.847657-.355468-2.777344-1.335938-10.5625-2.027344-21.335938-2.027344-32.277344 0-2.039062.0195312-4.066406.0742188-6.089844h284.5976562c8.996094 0 17.617187-3.574218 23.96875-9.929687l27.929687-27.929688c6.355469-6.351562 14.976563-9.925781 23.972657-9.925781h140.476562c2.128907 0 4.0625.648438 5.660157 1.746094 3.304687 2.265625 5.132812 6.425781 4.085937 10.6875zm0 0" fill="#e6e6e6"/><path d="m239.398438 43.066406h174.457031c11.890625 0 21.53125 9.640625 21.53125 21.53125v63.457032c0 11.894531-9.640625 21.535156-21.53125 21.535156h-174.457031c-11.894532 0-21.535157-9.640625-21.535157-21.535156v-63.457032c0-11.890625 9.640625-21.53125 21.535157-21.53125zm0 0" fill="#f76c59"/><path d="m258.867188 140.949219c-3.652344 0-6.613282-2.960938-6.613282-6.609375v-76.023438c0-3.652344 2.960938-6.613281 6.613282-6.613281 3.648437 0 6.609374 2.960937 6.609374 6.613281v76.023438c0 3.648437-2.960937 6.609375-6.609374 6.609375zm0 0" fill="#e85142"/><path d="m304.039062 140.949219c-3.652343 0-6.609374-2.960938-6.609374-6.609375v-76.023438c0-3.652344 2.957031-6.613281 6.609374-6.613281 3.652344 0 6.609376 2.960937 6.609376 6.613281v76.023438c0 3.648437-2.957032 6.609375-6.609376 6.609375zm0 0" fill="#e85142"/><path d="m349.210938 140.949219c-3.648438 0-6.609376-2.960938-6.609376-6.609375v-76.023438c0-3.652344 2.960938-6.613281 6.609376-6.613281 3.652343 0 6.613281 2.960937 6.613281 6.613281v76.023438c-.003907 3.648437-2.960938 6.609375-6.613281 6.609375zm0 0" fill="#e85142"/><path d="m394.386719 140.949219c-3.652344 0-6.613281-2.960938-6.613281-6.609375v-76.023438c0-3.652344 2.960937-6.613281 6.613281-6.613281 3.648437 0 6.609375 2.960937 6.609375 6.613281v76.023438c0 3.648437-2.960938 6.609375-6.609375 6.609375zm0 0" fill="#e85142"/><path d="m33.613281 382.890625c-.855469-1.492187-1.691406-2.988281-2.507812-4.492187-10.675781-19.550782-18.871094-40.667969-24.15625-62.902344-1.496094-6.3125-2.769531-12.714844-3.792969-19.203125-.28125-1.734375-.535156-3.480469-.773438-5.238281-.125-.917969-.25-1.847657-.355468-2.777344-1.335938-10.5625-2.027344-21.335938-2.027344-32.277344 0-2.039062.0195312-4.066406.0742188-6.089844h26.3710932c-5.003906 19.945313-7.941406 69.640625 65.296876 116.484375 38.953124 24.910157.492187 24.992188-58.128907 16.496094zm0 0" fill="#ccc"/><path d="m480.863281 336.738281-2.238281 9.089844-14.011719 58.589844c-46.414062 65.117187-122.554687 107.582031-208.613281 107.582031-97.050781 0-181.476562-54-224.894531-133.589844 0-.011718 0-.011718 0-.011718-.070313-.125-.132813-.25-.207031-.375-.636719-1.179688-1.277344-2.363282-1.890626-3.554688-.691406-1.316406-1.371093-2.640625-2.039062-3.96875-.667969-1.335938-1.328125-2.675781-1.964844-4.023438-.648437-1.335937-1.285156-2.695312-1.902344-4.054687-.59375-1.292969-1.179687-2.601563-1.753906-3.917969-.042968-.09375-.082031-.1875-.117187-.28125-.582031-1.335937-1.15625-2.675781-1.710938-4.023437-.574219-1.378907-1.140625-2.769531-1.695312-4.160157-.542969-1.398437-1.085938-2.796874-1.605469-4.210937-.230469-.605469-.460938-1.199219-.679688-1.804687-.191406-.511719-.378906-1.035157-.554687-1.546876-.230469-.617187-.449219-1.246093-.667969-1.871093-.449218-1.285157-.890625-2.570313-1.316406-3.867188zm0 0" fill="#3b404d"/><path d="m482.929688 374.585938c-.039063.082031-.082032.167968-.125.261718-5.402344 10.292969-11.484376 20.164063-18.191407 29.570313-46.414062 65.117187-122.554687 107.582031-208.613281 107.582031-89.464844 0-168.207031-45.890625-213.984375-115.417969-.25-.378906-.480469-.742187-.710937-1.109375-.21875-.34375-.429688-.679687-.648438-1.011718 12.539062-4.316407 24.984375-13.824219 31.117188-25.757813 3.886718-7.585937 14.367187-8.734375 19.96875-2.308594 4.742187 5.433594 9.164062 12.546875 11.066406 21.347657 1.230468 5.683593 7.050781 9.097656 12.632812 7.460937 13.28125-3.910156 26.894532-13.835937 33.394532-26.5 3.886718-7.585937 14.367187-8.734375 19.96875-2.308594 4.742187 5.433594 9.164062 12.546875 11.0625 21.347657 1.234374 5.683593 7.054687 9.097656 12.632812 7.449218 13.273438-3.910156 26.886719-13.835937 33.386719-26.488281 3.886719-7.585937 14.367187-8.746094 19.96875-2.320313 4.742187 5.433594 9.171875 12.550782 11.074219 21.359376 1.234374 5.683593 7.054687 9.097656 12.632812 7.449218 13.269531-3.898437 26.886719-13.835937 33.375-26.488281 3.898438-7.585937 14.367188-8.734375 19.976562-2.308594 4.734376 5.433594 9.164063 12.546875 11.066407 21.347657 1.222656 5.683593 7.054687 9.097656 12.621093 7.460937 13.28125-3.910156 26.90625-13.835937 33.394532-26.5 3.898437-7.585937 14.371094-8.734375 19.980468-2.308594 4.734376 5.433594 9.164063 12.546875 11.066407 21.347657 1.222656 5.683593 7.050781 9.097656 12.621093 7.449218 13.28125-3.910156 26.894532-13.835937 33.382813-26.488281 3.898437-7.585937 14.371094-8.746094 19.980469-2.320313 2.089844 2.402344 4.128906 5.140626 5.902344 8.203126zm0 0" fill="#52b5d8"/><path d="m427.800781 445.773438c-.039062.03125-.070312.074218-.113281.117187-45.410156 41.085937-105.628906 66.109375-171.6875 66.109375-68.230469 0-130.226562-26.6875-176.105469-70.195312-.085937-.085938-.160156-.167969-.242187-.242188 3.855468-3.6875 7.117187-7.898438 9.46875-12.464844 3.894531-7.585937 14.367187-8.757812 19.976562-2.328125 4.742188 5.429688 9.164063 12.546875 11.066406 21.34375 1.230469 5.6875 7.050782 9.101563 12.632813 7.460938 13.28125-3.90625 26.894531-13.832031 33.382813-26.496094 3.898437-7.585937 14.378906-8.738281 19.980468-2.308594 4.730469 5.429688 9.164063 12.546875 11.0625 21.34375 1.234375 5.6875 7.054688 9.101563 12.632813 7.460938 13.273437-3.90625 26.886719-13.84375 33.375-26.496094 3.898437-7.585937 14.367187-8.738281 19.980469-2.320313 4.742187 5.433594 9.171874 12.558594 11.074218 21.355469 1.222656 5.6875 7.054688 9.101563 12.632813 7.460938 13.269531-3.90625 26.886719-13.832031 33.375-26.488281 3.898437-7.59375 14.367187-8.746094 19.976562-2.316407 4.734375 5.429688 9.15625 12.546875 11.066407 21.34375 1.222656 5.6875 7.042968 9.101563 12.621093 7.460938 13.28125-3.90625 26.898438-13.832031 33.398438-26.488281 3.917969-7.648438 14.449219-8.691407 20.082031-2.191407 4.261719 4.921875 8.253906 11.210938 10.363281 18.878907zm0 0" fill="#3da5c1"/><path d="m476.058594 244.1875c0 12.324219-9.988282 22.3125-22.3125 22.3125-12.320313 0-22.308594-9.988281-22.308594-22.3125 0-12.320312 9.988281-22.308594 22.308594-22.308594 12.324218 0 22.3125 9.988282 22.3125 22.308594zm0 0" fill="#55627a"/><path d="m465.667969 241.453125c0 6.582031-5.335938 11.921875-11.921875 11.921875-6.582032 0-11.921875-5.339844-11.921875-11.921875 0-6.585937 5.339843-11.921875 11.921875-11.921875 6.585937 0 11.921875 5.335938 11.921875 11.921875zm0 0" fill="#36435e"/><path d="m482.472656 330.125-3.847656 15.703125h-462.40625c-1.957031-5.160156-3.722656-10.394531-5.308594-15.703125zm0 0" fill="#f76c59"/><path d="m409.507812 247.367188h-53.917968c-3.59375 0-6.503906-2.914063-6.503906-6.503907 0-3.59375 2.910156-6.507812 6.503906-6.507812h53.917968c3.59375 0 6.503907 2.914062 6.503907 6.507812.003906 3.589844-2.910157 6.503907-6.503907 6.503907zm0 0" fill="#55627a"/></svg>