<svg height="512pt" viewBox="0 0 512 512" width="512pt" xmlns="http://www.w3.org/2000/svg"><path d="m512 256c0 12.296875-.867188 24.386719-2.539062 36.214844-1.179688 8.316406-2.757813 16.507812-4.722657 24.554687-2.140625 8.828125-4.753906 17.492188-7.804687 25.945313-19.6875 54.699218-57.46875 100.757812-106.121094 130.945312-9.464844 5.882813-19.351562 11.148438-29.589844 15.765625-32.089844 14.503907-67.710937 22.570313-105.222656 22.570313-6.507812 0-12.957031-.238282-19.339844-.71875-23.488281-1.757813-46.101562-6.679688-67.394531-14.359375-34.972656-12.578125-66.402344-32.566407-92.421875-58.0625-7.261719-7.117188-14.09375-14.652344-20.457031-22.582031-.574219-.699219-1.140625-1.398438-1.695313-2.109376-3.488281-4.429687-6.832031-8.988281-10.019531-13.648437-12.195313-17.792969-22.191406-37.195313-29.613281-57.832031-9.746094-27.074219-15.05468775-56.269532-15.05468775-86.683594 0-30.429688 5.30859375-59.625 15.05468775-86.695312 12.5625-34.921876 32.507812-66.332032 57.949218-92.328126 14.371094-14.691406 30.492188-27.648437 48.035157-38.546874 39.183593-24.367188 85.429687-38.429688 134.957031-38.429688 87.804688 0 165.28125 44.210938 211.394531 111.574219 12.160157 17.753906 22.128907 37.113281 29.539063 57.699219 9.757812 27.082031 15.066406 56.289062 15.066406 86.726562zm0 0" fill="#52b5d8"/><path d="m328.109375 38.429688v377.84375h-271.722656c-.574219-.699219-1.140625-1.398438-1.695313-2.109376-3.488281-4.429687-6.832031-8.988281-10.019531-13.648437-12.195313-17.792969-22.191406-37.195313-29.613281-57.832031v-304.253906zm0 0" fill="#55627a"/><g fill="#36435e"><path d="m343.167969 37.519531c0 5.292969-2.148438 10.082031-5.613281 13.550781-3.46875 3.46875-8.261719 5.613282-13.554688 5.613282h-304.832031c-10.589844 0-19.167969-8.578125-19.167969-19.164063 0-5.296875 2.144531-10.085937 5.613281-13.554687s8.257813-5.613282 13.554688-5.613282h304.832031c10.585938 0 19.167969 8.578126 19.167969 19.167969zm0 0"/><path d="m343.167969 228.605469c0 5.28125-2.148438 10.085937-5.613281 13.550781-3.46875 3.46875-8.261719 5.613281-13.554688 5.613281h-304.832031c-10.589844 0-19.167969-8.585937-19.167969-19.164062 0-5.292969 2.144531-10.085938 5.613281-13.554688s8.257813-5.613281 13.554688-5.613281h304.832031c10.585938 0 19.167969 8.582031 19.167969 19.167969zm0 0"/><path d="m324 65.808594c1.414062 0 2.785156-.152344 4.109375-.445313v-26.933593h-313.050781v304.25c7.421875 20.636718 17.417968 40.042968 29.613281 57.835937 3.1875 4.660156 6.53125 9.214844 10.019531 13.648437.554688.710938 1.121094 1.410157 1.695313 2.109376h16.621093v-130.929688c0-15.710938 12.738282-28.445312 28.445313-28.445312h222.546875c1.414062 0 2.785156-.15625 4.105469-.449219v-37.4375c-1.320313-.292969-2.691407-.445313-4.105469-.445313h-250.992188v-124.3125c0-15.707031 12.738282-28.445312 28.445313-28.445312zm0 0"/><path d="m343.167969 419.679688c0 5.296874-2.144531 10.085937-5.613281 13.554687s-8.265626 5.621094-13.550782 5.621094h-247.160156c-7.898438-7.742188-15.296875-15.988281-22.152344-24.691407-3.488281-4.429687-6.832031-8.988281-10.019531-13.648437h279.332031c10.582032 0 19.164063 8.582031 19.164063 19.164063zm0 0"/></g><path d="m343.167969 37.519531c0 5.292969-2.148438 10.082031-5.613281 13.550781-3.46875 3.46875-8.261719 5.613282-13.554688 5.613282h-250.949219c-10.585937 0-19.167969-8.578125-19.167969-19.164063 0-5.296875 2.144532-10.085937 5.613282-13.554687s8.261718-5.613282 13.554687-5.613282h250.949219c10.585938 0 19.167969 8.578126 19.167969 19.167969zm0 0" fill="#55627a"/><path d="m343.167969 228.605469c0 5.28125-2.148438 10.085937-5.613281 13.550781-3.46875 3.46875-8.261719 5.613281-13.554688 5.613281h-250.949219c-10.585937 0-19.167969-8.585937-19.167969-19.164062 0-5.292969 2.144532-10.085938 5.613282-13.554688s8.261718-5.613281 13.554687-5.613281h250.949219c10.585938 0 19.167969 8.582031 19.167969 19.167969zm0 0" fill="#55627a"/><path d="m343.167969 419.679688c0 5.296874-2.144531 10.085937-5.613281 13.554687s-8.265626 5.621094-13.550782 5.621094h-247.160156c-7.898438-7.742188-15.296875-15.988281-22.152344-24.691407.921875-3.074218 2.59375-5.820312 4.808594-8.035156 3.46875-3.46875 8.253906-5.613281 13.550781-5.613281h250.953125c10.582032 0 19.164063 8.582031 19.164063 19.164063zm0 0" fill="#55627a"/><path d="m159.859375 73.765625-57.492187 99.578125c-5.210938 9.023438 1.304687 20.308594 11.722656 20.308594h114.984375c10.421875 0 16.9375-11.285156 11.726562-20.308594l-57.492187-99.578125c-5.210938-9.027344-18.238282-9.027344-23.449219 0zm0 0" fill="#ffda73"/><path d="m152.292969 175.445312c10.65625 10.652344 27.925781 10.652344 38.578125 0 10.65625-10.65625 10.65625-27.925781 0-38.582031l-19.289063-19.289062-19.289062 19.289062c-10.652344 10.65625-10.652344 27.925781 0 38.582031zm0 0" fill="#f76c59"/><path d="m496.933594 111.574219v231.140625c-19.6875 54.699218-57.46875 100.757812-106.121094 130.945312-9.464844 5.882813-19.351562 11.148438-29.589844 15.765625h-177.328125v-377.851562zm0 0" fill="#55627a"/><path d="m511.996094 110.664062c0 5.292969-2.144532 10.085938-5.613282 13.554688s-8.257812 5.613281-13.550781 5.613281h-304.835937c-10.585938 0-19.167969-8.582031-19.167969-19.167969 0-5.292968 2.144531-10.085937 5.613281-13.554687 3.46875-3.464844 8.261719-5.613281 13.554688-5.613281h304.835937c10.585938 0 19.164063 8.582031 19.164063 19.167968zm0 0" fill="#36435e"/><path d="m509.460938 292.214844c-1.179688 8.316406-2.757813 16.507812-4.722657 24.554687-3.269531 2.601563-7.410156 4.148438-11.910156 4.148438h-304.828125c-10.59375 0-19.171875-8.589844-19.171875-19.164063 0-5.296875 2.152344-10.082031 5.621094-13.550781 3.457031-3.46875 8.253906-5.613281 13.550781-5.613281h304.828125c7.113281 0 13.320313 3.867187 16.632813 9.625zm0 0" fill="#36435e"/><path d="m492.832031 138.957031c1.414063 0 2.78125-.15625 4.105469-.445312v-26.933594h-313.046875v377.847656h57.953125v-126.347656c0-18.242187 14.789062-33.035156 33.035156-33.035156h217.953125c1.414063 0 2.78125-.152344 4.105469-.445313v-37.4375c-1.324219-.292968-2.691406-.449218-4.105469-.449218h-250.988281v-119.71875c0-18.242188 14.789062-33.035157 33.035156-33.035157zm0 0" fill="#36435e"/><path d="m390.8125 473.660156c-39.152344 24.304688-85.335938 38.335938-134.8125 38.335938-6.507812 0-12.957031-.238282-19.339844-.71875-23.488281-1.757813-46.101562-6.679688-67.394531-14.359375-.292969-1.316407-.4375-2.683594-.4375-4.085938 0-5.296875 2.152344-10.082031 5.621094-13.550781 3.457031-3.46875 8.253906-5.621094 13.550781-5.621094zm0 0" fill="#36435e"/><path d="m511.996094 110.664062c0 5.292969-2.144532 10.085938-5.613282 13.554688s-8.257812 5.613281-13.550781 5.613281h-250.949219c-10.589843 0-19.167968-8.582031-19.167968-19.167969 0-5.292968 2.144531-10.085937 5.613281-13.554687 3.46875-3.464844 8.257813-5.613281 13.554687-5.613281h250.949219c10.585938 0 19.164063 8.582031 19.164063 19.167968zm0 0" fill="#55627a"/><path d="m509.460938 292.214844c-1.179688 8.316406-2.757813 16.507812-4.722657 24.554687-3.269531 2.601563-7.410156 4.148438-11.910156 4.148438h-250.941406c-10.597657 0-19.175781-8.589844-19.175781-19.164063 0-5.296875 2.152343-10.082031 5.613281-13.550781 3.46875-3.46875 8.261719-5.613281 13.5625-5.613281h250.941406c7.113281 0 13.320313 3.867187 16.632813 9.625zm0 0" fill="#55627a"/><path d="m390.8125 473.660156c-39.152344 24.304688-85.335938 38.335938-134.8125 38.335938h-14.113281c-1.808594 0-3.566407-.25-5.226563-.71875-8.054687-2.269532-13.949218-9.667969-13.949218-18.445313 0-5.296875 2.152343-10.082031 5.613281-13.550781 3.46875-3.46875 8.261719-5.621094 13.5625-5.621094zm0 0" fill="#55627a"/><path d="m328.6875 146.910156-57.488281 99.578125c-5.210938 9.027344 1.300781 20.308594 11.722656 20.308594h114.984375c10.421875 0 16.9375-11.28125 11.722656-20.308594l-57.488281-99.578125c-5.214844-9.023437-18.242187-9.023437-23.453125 0zm0 0" fill="#ffda73"/><path d="m321.125 248.589844c10.652344 10.65625 27.925781 10.65625 38.578125 0 10.652344-10.652344 10.652344-27.925782 0-38.578125l-19.289063-19.289063-19.289062 19.289063c-10.652344 10.652343-10.652344 27.925781 0 38.578125zm0 0" fill="#f76c59"/></svg>