<svg height="512pt" viewBox="0 0 512 512" width="512pt" xmlns="http://www.w3.org/2000/svg"><path d="m512 256c0 41.828125-10.03125 81.324219-27.824219 116.191406-18.339843 35.933594-44.910156 66.96875-77.242187 90.605469-42.316406 30.9375-94.488282 49.203125-150.933594 49.203125s-108.617188-18.265625-150.933594-49.203125c-16.15625-11.808594-30.867187-25.464844-43.847656-40.667969-12.984375-15.203125-24.21875-31.953125-33.394531-49.9375-17.792969-34.867187-27.824219-74.363281-27.824219-116.191406s10.03125-81.324219 27.824219-116.191406c9.175781-17.984375 20.410156-34.734375 33.394531-49.9375 10.679688-12.507813 22.53125-23.96875 35.402344-34.210938 43.730468-34.847656 99.121094-55.660156 159.378906-55.660156 60.269531 0 115.660156 20.824219 159.390625 55.660156 28.511719 22.71875 52.074219 51.398438 68.785156 84.148438 17.792969 34.867187 27.824219 74.363281 27.824219 116.191406zm0 0" fill="#36435e"/><path d="m484.175781 55.660156v316.53125c-18.339843 35.933594-44.910156 66.96875-77.242187 90.605469-42.316406 30.9375-94.488282 49.203125-150.933594 49.203125s-108.617188-18.265625-150.933594-49.203125c-16.15625-11.808594-30.867187-25.464844-43.847656-40.667969-12.984375-15.203125-24.21875-31.953125-33.394531-49.9375v-316.53125zm0 0" fill="#ffda73"/><path d="m406.933594 462.796875c-42.316406 30.9375-94.488282 49.203125-150.933594 49.203125s-108.617188-18.265625-150.933594-49.203125zm0 0" fill="#f9a54b"/><path d="m61.21875 55.660156v366.46875c-12.984375-15.203125-24.21875-31.953125-33.394531-49.9375v-316.53125zm0 0" fill="#f9a54b"/><g fill="#f76c59"><path d="m317.128906 132.746094-61.132812-36.261719-61.132813 36.261719v-77.085938h122.265625zm0 0"/><path d="m242.335938 293.898438h-38.003907v78.378906h-50.730469v-78.378906h-38.003906l63.363282-109.746094zm0 0"/><path d="m396.402344 293.898438h-38.003906v78.378906h-50.730469v-78.378906h-38.003907l63.363282-109.746094zm0 0"/><path d="m115.597656 387.949219h280.800782v39.582031h-280.800782zm0 0"/></g></svg>