<svg height="512pt" viewBox="0 0 512 512" width="512pt" xmlns="http://www.w3.org/2000/svg"><path d="m512 256c0 141.386719-114.613281 256-256 256-126.945312 0-232.3125-92.398438-252.5-213.628906-2.308594-13.78125-3.5-27.941406-3.5-42.371094 0-95.261719 52.035156-178.386719 129.242188-222.457031 37.011718-21.152344 79.8125-33.3125 125.441406-33.5312502.4375-.0117188.878906-.0117188 1.316406-.0117188 87.144531 0 164.121094 43.539062 210.347656 110.058594 28.789063 41.398437 45.652344 91.710937 45.652344 145.941406zm0 0" fill="#52b5d8"/><path d="m466.347656 110.058594h-141.832031c-5.695313 0-10.835937-2.308594-14.566406-6.039063-3.730469-3.71875-6.039063-8.882812-6.039063-14.566406 0-11.378906 9.226563-20.605469 20.605469-20.605469h5.722656c5.695313 0 10.835938-2.308594 14.566407-6.039062 3.730468-3.730469 6.039062-8.882813 6.039062-14.574219 0-11.378906-9.226562-20.605469-20.605469-20.605469h-56.171875c-5.695312 0-10.847656-2.3125-14.578125-6.042968-3.730469-3.730469-6.039062-8.871094-6.039062-14.5625 0-2.46875.429687-4.828126 1.234375-7.0117192.4375-.0117188.878906-.0117188 1.316406-.0117188 87.144531 0 164.121094 43.539062 210.347656 110.058594zm0 0" fill="#92dcf0"/><path d="m507.371094 304.734375c-3.542969 18.347656-9.039063 36.007813-16.269532 52.734375-5.621093 13.019531-12.296874 25.488281-19.925781 37.273438-45.589843 70.5625-124.929687 117.257812-215.175781 117.257812-60.769531 0-116.589844-21.167969-160.496094-56.550781-27.742187-22.347657-50.730468-50.375-67.1875-82.304688-3.175781-6.164062-6.113281-12.476562-8.789062-18.914062-6.550782-15.765625-11.585938-32.316407-14.878906-49.496094zm0 0" fill="#55627a"/><path d="m273.136719 57.898438v227.914062c0 1.167969-.082031 2.328125-.25 3.457031-1.671875 11.808594-11.828125 20.898438-24.105469 20.898438h-224.425781c-8.847657 0-16.59375-4.734375-20.855469-11.785157-.074219-.417968-.136719-.835937-.199219-1.265624-.207031-1.191407-.386719-2.394532-.5625-3.59375-.210937-1.421876-.398437-2.832032-.585937-4.253907-1.421875-10.886719-2.152344-21.996093-2.152344-33.269531v-198.101562c0-13.449219 10.910156-24.355469 24.355469-24.355469h224.425781c13.445312 0 24.355469 10.90625 24.355469 24.355469zm0 0" fill="#e6e6e6"/><path d="m441.988281 394.742188c0 33.945312-27.515625 61.460937-61.460937 61.460937-33.945313 0-61.464844-27.515625-61.464844-61.460937 0-33.945313 27.519531-61.464844 61.464844-61.464844 33.945312 0 61.460937 27.519531 61.460937 61.464844zm0 0" fill="#3b404d"/><path d="m380.527344 421.148438c-14.5625 0-26.410156-11.847657-26.410156-26.40625 0-14.5625 11.847656-26.410157 26.410156-26.410157s26.40625 11.847657 26.40625 26.410157c0 14.558593-11.84375 26.40625-26.40625 26.40625zm0 0" fill="#e6e6e6"/><path d="m147.332031 394.742188c0 30.667968-22.464843 56.089843-51.828125 60.707031-27.742187-22.347657-50.730468-50.375-67.1875-82.304688 8.734375-23.292969 31.199219-39.863281 57.554688-39.863281 33.9375 0 61.460937 27.511719 61.460937 61.460938zm0 0" fill="#3b404d"/><g fill="#e6e6e6"><path d="m292.570312 289.269531-19.433593 105.472657h-109.546875c0-6.125-.710938-12.078126-2.046875-17.796876-6.261719-26.726562-26.324219-48.148437-52.257813-56.328124-7.386718-2.339844-15.253906-3.59375-23.414062-3.59375-28.078125 0-52.683594 14.886718-66.34375 37.207031-7.363282-17.699219-12.796875-36.402344-16.027344-55.847657-.074219-.417968-.136719-.835937-.199219-1.265624-.207031-1.191407-.386719-2.394532-.5625-3.59375-.210937-1.421876-.398437-2.832032-.585937-4.253907zm0 0"/><path d="m491.101562 229.710938v127.757812c-5.621093 13.019531-12.296874 25.488281-19.925781 37.273438h-12.9375c0-42.925782-34.792969-77.71875-77.707031-77.71875-25.445312 0-48.023438 12.222656-62.214844 31.117187-9.738281 12.988281-15.503906 29.121094-15.503906 46.601563h-29.675781v-271.308594c0-12.027344 9.75-21.765625 21.765625-21.765625h115.699218c19.949219 0 37.835938 12.269531 45.015626 30.878906l33.625 87.164063c1.222656 3.195312 1.859374 6.582031 1.859374 10zm0 0"/><path d="m85.867188 421.148438c-14.5625 0-26.410157-11.847657-26.410157-26.40625 0-14.5625 11.847657-26.410157 26.410157-26.410157s26.40625 11.847657 26.40625 26.410157c0 14.558593-11.84375 26.40625-26.40625 26.40625zm0 0"/></g><path d="m456.445312 224.542969h-150.96875v-90.546875h105.125c6.53125 0 12.496094 4.097656 14.84375 10.1875zm0 0" fill="#3b404d"/><path d="m338.613281 263.152344h-33.136719c-4.328124 0-7.835937-3.511719-7.835937-7.835938 0-4.328125 3.507813-7.839844 7.835937-7.839844h33.136719c4.328125 0 7.835938 3.511719 7.835938 7.839844 0 4.324219-3.507813 7.835938-7.835938 7.835938zm0 0" fill="#3b404d"/><path d="m103.164062 310.167969c1.972657 3.5625 4.023438 7.042969 6.121094 10.449219-7.386718-2.339844-15.253906-3.59375-23.414062-3.59375-28.078125 0-52.683594 14.886718-66.34375 37.207031-7.363282-17.699219-12.796875-36.402344-16.027344-55.847657-.074219-.417968-.136719-.835937-.199219-1.265624-.207031-1.191407-.386719-2.394532-.5625-3.59375-.210937-1.421876-.398437-2.832032-.585937-4.253907-1.421875-10.886719-2.152344-21.996093-2.152344-33.269531v-198.101562c0-13.449219 10.910156-24.355469 24.355469-24.355469h18.484375c0 66.820312 12.277344 174.882812 49.71875 255.726562 3.320312 7.199219 6.863281 14.179688 10.605468 20.898438zm0 0" fill="#ccc"/><path d="m206.890625 394.742188h-43.300781c0-6.125-.710938-12.078126-2.046875-17.796876 13.632812 8.894532 28.703125 15.046876 45.347656 17.796876zm0 0" fill="#ccc"/><path d="m318.316406 348.140625c-9.738281 12.988281-15.503906 29.121094-15.503906 46.601563h-29.675781v-271.308594c0-12.027344 9.75-21.765625 21.765625-21.765625 0 69.882812-7.609375 210.746093 23.414062 246.472656zm0 0" fill="#ccc"/><path d="m214.203125 203.984375h-67.605469l33.574219 33.574219-9.769531 9.769531-33.574219-33.574219v67.605469h-13.824219v-67.605469l-33.570312 33.574219-9.769532-9.769531 33.570313-33.574219h-67.605469v-13.824219h67.605469l-33.570313-33.570312 9.769532-9.769532 33.570312 33.570313v-67.605469h13.824219v67.605469l33.574219-33.570313 9.769531 9.769532-33.574219 33.570312h67.605469zm0 0" fill="#fff"/><path d="m63.539062 203.984375h-17.910156v-13.824219h14.683594c1.023438 4.609375 2.097656 9.226563 3.226562 13.824219zm0 0" fill="#e6e6e6"/></svg>