<svg height="512pt" viewBox="0 0 512 512" width="512pt" xmlns="http://www.w3.org/2000/svg"><path d="m512 256c0 36.539062-7.660156 71.292969-21.453125 102.746094-5.890625 13.425781-12.894531 26.234375-20.898437 38.335937-23.957032 36.214844-56.882813 65.984375-95.605469 86.140625-4.941407 2.570313-9.988281 4.996094-15.121094 7.242188-.480469.21875-.972656.429687-1.460937.636718-31.109376 13.449219-65.410157 20.898438-101.460938 20.898438s-70.351562-7.449219-101.460938-20.898438c-.488281-.207031-.980468-.417968-1.460937-.636718-5.132813-2.246094-10.179687-4.671875-15.121094-7.242188-6.175781-3.21875-12.203125-6.675781-18.066406-10.375-25.117187-15.777344-47.292969-35.820312-65.503906-59.089844-4.230469-5.378906-8.242188-10.949218-12.035157-16.675781-8.003906-12.101562-15.007812-24.910156-20.898437-38.335937-13.792969-31.453125-21.453125-66.207032-21.453125-102.746094s7.660156-71.292969 21.453125-102.746094c5.890625-13.425781 12.894531-26.234375 20.898437-38.335937 12.546876-18.964844 27.542969-36.152344 44.550782-51.117188 8.570312-7.554687 17.660156-14.542969 27.191406-20.898437 40.613281-27.101563 89.410156-42.902344 141.90625-42.902344s101.292969 15.800781 141.90625 42.902344c9.53125 6.355468 18.621094 13.34375 27.191406 20.898437 17.007813 14.964844 32.003906 32.152344 44.550782 51.117188 8.003906 12.101562 15.007812 24.910156 20.898437 38.335937 13.792969 31.453125 21.453125 66.207032 21.453125 102.746094zm0 0" fill="#73b287"/><path d="m490.546875 42.902344v315.84375c-5.890625 13.425781-12.894531 26.234375-20.898437 38.335937-23.957032 36.214844-56.882813 65.984375-95.605469 86.140625-4.941407 2.570313-9.988281 4.996094-15.121094 7.242188v.636718h-1.460937c-31.109376 13.449219-65.410157 20.898438-101.460938 20.898438s-70.351562-7.449219-101.460938-20.898438h-1.460937v-.636718c-5.132813-2.246094-10.179687-4.671875-15.121094-7.242188-38.722656-20.15625-71.648437-49.925781-95.605469-86.140625-8.003906-12.101562-15.007812-24.910156-20.898437-38.335937v-315.84375zm0 0" fill="#f9a54b"/><path d="m469.648438 63.800781v333.28125c-23.957032 36.214844-56.882813 65.984375-95.605469 86.140625-4.941407 2.570313-9.988281 4.996094-15.121094 7.242188v.636718h-205.84375v-.636718c-5.132813-2.246094-10.179687-4.671875-15.121094-7.242188-38.722656-20.15625-71.648437-49.925781-95.605469-86.140625v-333.28125zm0 0" fill="#ffda73"/><path d="m374.042969 63.800781v419.421875c-4.941407 2.570313-9.988281 4.996094-15.121094 7.242188v-426.664063zm0 0" fill="#f9a54b"/><path d="m248.4375 63.800781h15.117188v427.300781h-15.117188zm0 0" fill="#f9a54b"/><path d="m153.078125 63.800781v426.664063c-5.132813-2.246094-10.179687-4.671875-15.121094-7.242188v-419.421875zm0 0" fill="#f9a54b"/><path d="m459.660156 133.078125-339.769531 339.769531c-25.117187-15.777344-47.292969-35.820312-65.503906-59.089844l342.988281-342.976562zm0 0" fill="#f9a54b"/><g fill="#3b404d"><path d="m102.925781 231.648438-14.484375 2.300781 4.746094 29.875-19.335938 3.070312-4.746093-29.871093-14.484375 2.300781 17.5-45.667969zm0 0"/><path d="m161.648438 222.316406-14.484376 2.300782 4.746094 29.875-19.335937 3.070312-4.746094-29.871094-14.484375 2.300782 17.5-45.667969zm0 0"/><path d="m60.304688 275.171875 107.023437-17 2.398437 15.085937-107.027343 17zm0 0"/><path d="m411.691406 365.265625c-13.859375 0-25.097656-11.238281-25.097656-25.097656v-57.03125h50.191406v57.03125c0 13.859375-11.234375 25.097656-25.09375 25.097656zm0 0"/><path d="m405.988281 343.589844h11.40625v73.003906h-11.40625zm0 0"/><path d="m386.976562 411.460938h49.425782v11.40625h-49.425782zm0 0"/><path d="m414.824219 126.714844c0 5.195312-4.210938 9.402344-9.402344 9.402344-5.195313 0-9.40625-4.207032-9.40625-9.402344 0-5.195313 4.210937-9.402344 9.40625-9.402344 5.191406 0 9.402344 4.207031 9.402344 9.402344zm0 0"/><path d="m269.445312 272.09375c0 5.195312-4.210937 9.402344-9.402343 9.402344-5.195313 0-9.40625-4.207032-9.40625-9.402344s4.210937-9.40625 9.40625-9.40625c5.191406 0 9.402343 4.210938 9.402343 9.40625zm0 0"/><path d="m97.175781 102.683594c0 5.191406-4.210937 9.402344-9.40625 9.402344-5.191406 0-9.402343-4.210938-9.402343-9.402344 0-5.195313 4.210937-9.40625 9.402343-9.40625 5.195313 0 9.40625 4.210937 9.40625 9.40625zm0 0"/><path d="m210.597656 102.683594c0 5.191406-4.210937 9.402344-9.40625 9.402344-5.191406 0-9.402344-4.210938-9.402344-9.402344 0-5.195313 4.210938-9.40625 9.402344-9.40625 5.195313 0 9.40625 4.210937 9.40625 9.40625zm0 0"/><path d="m322.308594 102.683594c0 5.191406-4.207032 9.402344-9.402344 9.402344s-9.402344-4.210938-9.402344-9.402344c0-5.195313 4.207032-9.40625 9.402344-9.40625s9.402344 4.210937 9.402344 9.40625zm0 0"/><path d="m210.597656 461.082031c0 5.195313-4.210937 9.402344-9.40625 9.402344-5.191406 0-9.402344-4.207031-9.402344-9.402344 0-5.195312 4.210938-9.402343 9.402344-9.402343 5.195313 0 9.40625 4.207031 9.40625 9.402343zm0 0"/><path d="m322.308594 461.082031c0 5.195313-4.207032 9.402344-9.402344 9.402344s-9.402344-4.207031-9.402344-9.402344c0-5.195312 4.207032-9.402343 9.402344-9.402343s9.402344 4.207031 9.402344 9.402343zm0 0"/><path d="m112.445312 429.09375c0 5.195312-4.210937 9.402344-9.402343 9.402344-5.195313 0-9.40625-4.207032-9.40625-9.402344s4.210937-9.402344 9.40625-9.402344c5.191406 0 9.402343 4.207032 9.402343 9.402344zm0 0"/></g></svg>