<svg height="512pt" viewBox="0 0 512 512" width="512pt" xmlns="http://www.w3.org/2000/svg"><path d="m512 256c0 41.011719-9.644531 79.789062-26.792969 114.15625-6.277343 12.589844-13.570312 24.597656-21.785156 35.902344-10.53125 14.542968-22.558594 27.929687-35.859375 39.933594-4.972656 4.515624-10.136719 8.820312-15.476562 12.917968-16.113282 12.433594-33.75 22.976563-52.589844 31.304688-31.648438 14-66.664063 21.785156-103.496094 21.785156s-71.859375-7.785156-103.507812-21.785156c-18.839844-8.328125-36.476563-18.871094-52.589844-31.304688-5.328125-4.097656-10.492188-8.402344-15.464844-12.90625-13.289062-12.003906-25.328125-25.402344-35.859375-39.9375-8.203125-11.3125-15.507813-23.332031-21.796875-35.933594-17.136719-34.367187-26.78125-73.121093-26.78125-114.132812s9.644531-79.765625 26.78125-114.132812c6.289062-12.613282 13.59375-24.621094 21.796875-35.933594 7.867187-10.867188 16.570313-21.085938 26.015625-30.566406 7.746094-7.78125 15.988281-15.066407 24.683594-21.796876 43.300781-33.582031 97.675781-53.570312 156.722656-53.570312s113.421875 19.988281 156.722656 53.570312c8.695313 6.730469 16.9375 14.015626 24.671875 21.796876 9.457031 9.488281 18.160157 19.707031 26.027344 30.574218 8.203125 11.304688 15.496094 23.3125 21.785156 35.902344 17.148438 34.367188 26.792969 73.144531 26.792969 114.15625zm0 0" fill="#52b5d8"/><path d="m485.207031 94.1875v275.96875c-41.960937 84.082031-128.84375 141.84375-229.207031 141.84375-100.371094 0-187.257812-57.761719-229.21875-141.867188v-275.945312c0-22.433594 18.191406-40.617188 40.625-40.617188h377.1875c22.433594 0 40.613281 18.183594 40.613281 40.617188zm0 0" fill="#f9a54b"/><path d="m238.5625 75.367188v414.847656h-86.070312c-41.660157-18.433594-77.480469-47.667969-103.914063-84.148438v-311.878906c0-10.375 8.441406-18.820312 18.828125-18.820312zm0 0" fill="#ffda73"/><path d="m463.421875 94.1875v311.871094c-26.425781 36.476562-62.253906 65.710937-103.925781 84.15625h-86.066406v-414.847656h171.164062c10.375 0 18.828125 8.445312 18.828125 18.820312zm0 0" fill="#ffda73"/><path d="m301.757812 178.707031h-91.519531c-9.929687 0-17.980469-8.046875-17.980469-17.976562 0-9.925781 8.050782-17.976563 17.980469-17.976563h91.519531c9.929688 0 17.976563 8.050782 17.976563 17.976563 0 9.929687-8.046875 17.976562-17.976563 17.976562zm0 0" fill="#f9a54b"/><path d="m301.757812 423.855469h-91.519531c-9.929687 0-17.980469-8.046875-17.980469-17.976563 0-9.929687 8.050782-17.976562 17.980469-17.976562h91.519531c9.929688 0 17.976563 8.046875 17.976563 17.976562 0 9.929688-8.046875 17.976563-17.976563 17.976563zm0 0" fill="#f9a54b"/><path d="m290.558594 273.851562h-66.9375v-49.703124c0-18.453126 15.015625-33.46875 33.46875-33.46875s33.46875 15.015624 33.46875 33.46875zm-50.589844-16.34375h34.242188v-33.359374c0-9.441407-7.679688-17.125-17.121094-17.125s-17.121094 7.683593-17.121094 17.125zm0 0" fill="#36435e"/><path d="m301.238281 282.785156c0 24.988282-20.253906 45.242188-45.242187 45.242188-24.984375 0-45.242188-20.253906-45.242188-45.242188 0-24.984375 20.257813-45.242187 45.242188-45.242187 24.988281 0 45.242187 20.257812 45.242187 45.242187zm0 0" fill="#f76c59"/><path d="m273.429688 274.085938c0-9.628907-7.804688-17.433594-17.433594-17.433594s-17.433594 7.804687-17.433594 17.433594c0 7.425781 4.648438 13.75 11.191406 16.261718l-10.722656 18.570313h33.929688l-10.722657-18.570313c6.542969-2.511718 11.191407-8.835937 11.191407-16.261718zm0 0" fill="#36435e"/><g fill="#f9a54b"><path d="m249.097656 178.707031h15.984375v38.304688h-15.984375zm0 0"/><path d="m427.5625 118.617188v327.375c-4.972656 4.515624-10.136719 8.820312-15.476562 12.917968-5.308594-1.378906-9.226563-6.207031-9.226563-11.953125v-328.339843c0-6.8125 5.527344-12.351563 12.351563-12.351563 3.417968 0 6.5 1.390625 8.734374 3.625 2.238282 2.238281 3.617188 5.320313 3.617188 8.726563zm0 0"/><path d="m352.476562 459.300781c-6.820312 0-12.347656-5.527343-12.347656-12.347656v-328.332031c0-6.820313 5.527344-12.351563 12.347656-12.351563 6.820313 0 12.347657 5.53125 12.347657 12.351563v328.332031c0 6.820313-5.527344 12.347656-12.347657 12.347656zm0 0"/><path d="m159.515625 459.300781c-6.820313 0-12.347656-5.527343-12.347656-12.347656v-328.332031c0-6.820313 5.527343-12.351563 12.347656-12.351563s12.347656 5.53125 12.347656 12.351563v328.332031c0 6.820313-5.527343 12.347656-12.347656 12.347656zm0 0"/><path d="m109.128906 118.617188v328.339843c0 5.746094-3.917968 10.574219-9.226562 11.953125-5.328125-4.097656-10.492188-8.402344-15.464844-12.90625v-327.386718c0-6.8125 5.527344-12.351563 12.351562-12.351563 3.40625 0 6.488282 1.390625 8.726563 3.625 2.234375 2.238281 3.613281 5.320313 3.613281 8.726563zm0 0"/></g></svg>